RBDS017runT45_grf
version=1
nRows=30
nColumns=19
inDegrees=no
endheader
time	ground_force_r_vx	ground_force_r_vy	ground_force_r_vz	ground_force_r_px	ground_force_r_py	ground_force_r_pz	ground_force_r_mx	ground_force_r_my	ground_force_r_mz	ground_force_l_vx	ground_force_l_vy	ground_force_l_vz	ground_force_l_px	ground_force_l_py	ground_force_l_pz	ground_force_l_mx	ground_force_l_my	ground_force_l_mz
      7.49900000	   -100.14962369	    603.37731327	     11.63126647	      2.40918974	      0.00000000	      1.09320343	      0.00000000	      1.81828144	      0.00000000	      0.00000000	      0.00000000	      0.00000000	      0.00000000	      0.00000000	      0.00000000	      0.00000000	      0.00000000	      0.00000000
      7.50000000	   -108.93814318	    665.92570638	      9.69979677	      2.40784463	      0.00000000	      1.09232872	      0.00000000	      1.90807180	      0.00000000	      0.00000000	      0.00000000	      0.00000000	      0.00000000	      0.00000000	      0.00000000	      0.00000000	      0.00000000	      0.00000000
      7.50100000	   -117.34893395	    726.40726459	      7.90132500	      2.40643871	      0.00000000	      1.09148154	      0.00000000	      2.01873278	      0.00000000	      0.00000000	      0.00000000	      0.00000000	      0.00000000	      0.00000000	      0.00000000	      0.00000000	      0.00000000	      0.00000000
      7.50200000	   -125.75972471	    786.88882279	      6.10285322	      2.40503279	      0.00000000	      1.09063436	      0.00000000	      2.12939375	      0.00000000	      0.00000000	      0.00000000	      0.00000000	      0.00000000	      0.00000000	      0.00000000	      0.00000000	      0.00000000	      0.00000000
      7.50300000	   -134.17051548	    847.37038100	      4.30438144	      2.40362687	      0.00000000	      1.08978718	      0.00000000	      2.24005473	      0.00000000	      0.00000000	      0.00000000	      0.00000000	      0.00000000	      0.00000000	      0.00000000	      0.00000000	      0.00000000	      0.00000000
      7.50400000	   -142.26291741	    906.03547715	      2.62227189	      2.40216402	      0.00000000	      1.08896466	      0.00000000	      2.37302663	      0.00000000	      0.00000000	      0.00000000	      0.00000000	      0.00000000	      0.00000000	      0.00000000	      0.00000000	      0.00000000	      0.00000000
      7.50500000	   -150.19612493	    963.79234227	      0.99834345	      2.40067272	      0.00000000	      1.08815446	      0.00000000	      2.51715399	      0.00000000	      0.00000000	      0.00000000	      0.00000000	      0.00000000	      0.00000000	      0.00000000	      0.00000000	      0.00000000	      0.00000000
      7.50600000	   -158.12933246	   1021.54920739	     -0.62558499	      2.39918141	      0.00000000	      1.08734427	      0.00000000	      2.66128135	      0.00000000	      0.00000000	      0.00000000	      0.00000000	      0.00000000	      0.00000000	      0.00000000	      0.00000000	      0.00000000	      0.00000000
      7.50700000	   -165.87064283	   1078.20638144	     -2.18227832	      2.39765398	      0.00000000	      1.08654934	      0.00000000	      2.81972323	      0.00000000	      0.00000000	      0.00000000	      0.00000000	      0.00000000	      0.00000000	      0.00000000	      0.00000000	      0.00000000	      0.00000000
      7.50800000	   -173.22815893	   1132.66417336	     -3.60450144	      2.39605430	      0.00000000	      1.08578497	      0.00000000	      3.00679416	      0.00000000	      0.00000000	      0.00000000	      0.00000000	      0.00000000	      0.00000000	      0.00000000	      0.00000000	      0.00000000	      0.00000000
      7.50900000	   -180.58567502	   1187.12196528	     -5.02672457	      2.39445462	      0.00000000	      1.08502059	      0.00000000	      3.19386509	      0.00000000	      0.00000000	      0.00000000	      0.00000000	      0.00000000	      0.00000000	      0.00000000	      0.00000000	      0.00000000	      0.00000000
      7.51000000	   -187.94319111	   1241.57975720	     -6.44894769	      2.39285494	      0.00000000	      1.08425621	      0.00000000	      3.38093602	      0.00000000	      0.00000000	      0.00000000	      0.00000000	      0.00000000	      0.00000000	      0.00000000	      0.00000000	      0.00000000	      0.00000000
      7.51100000	   -194.63010420	   1292.26045905	     -7.65763415	      2.39112630	      0.00000000	      1.08354566	      0.00000000	      3.61680323	      0.00000000	      0.00000000	      0.00000000	      0.00000000	      0.00000000	      0.00000000	      0.00000000	      0.00000000	      0.00000000	      0.00000000
      7.51200000	   -201.31701729	   1342.94116090	     -8.86632060	      2.38939765	      0.00000000	      1.08283511	      0.00000000	      3.85267044	      0.00000000	      0.00000000	      0.00000000	      0.00000000	      0.00000000	      0.00000000	      0.00000000	      0.00000000	      0.00000000	      0.00000000
      7.51300000	   -208.00393038	   1393.62186275	    -10.07500706	      2.38766900	      0.00000000	      1.08212455	      0.00000000	      4.08853764	      0.00000000	      0.00000000	      0.00000000	      0.00000000	      0.00000000	      0.00000000	      0.00000000	      0.00000000	      0.00000000	      0.00000000
      7.51400000	   -214.18351084	   1441.53570197	    -11.14343030	      2.38584268	      0.00000000	      1.08145455	      0.00000000	      4.35824769	      0.00000000	      0.00000000	      0.00000000	      0.00000000	      0.00000000	      0.00000000	      0.00000000	      0.00000000	      0.00000000	      0.00000000
      7.51500000	   -220.10942499	   1488.06610987	    -12.14172194	      2.38396752	      0.00000000	      1.08080481	      0.00000000	      4.64487915	      0.00000000	      0.00000000	      0.00000000	      0.00000000	      0.00000000	      0.00000000	      0.00000000	      0.00000000	      0.00000000	      0.00000000
      7.51600000	   -226.03533913	   1534.59651778	    -13.14001358	      2.38209236	      0.00000000	      1.08015507	      0.00000000	      4.93151061	      0.00000000	      0.00000000	      0.00000000	      0.00000000	      0.00000000	      0.00000000	      0.00000000	      0.00000000	      0.00000000	      0.00000000
      7.51700000	   -231.67942118	   1579.65526108	    -14.07367669	      2.38016369	      0.00000000	      1.07952754	      0.00000000	      5.23443377	      0.00000000	      0.00000000	      0.00000000	      0.00000000	      0.00000000	      0.00000000	      0.00000000	      0.00000000	      0.00000000	      0.00000000
      7.51800000	   -236.75983903	   1621.77067516	    -14.87808275	      2.37812800	      0.00000000	      1.07894443	      0.00000000	      5.56994033	      0.00000000	      0.00000000	      0.00000000	      0.00000000	      0.00000000	      0.00000000	      0.00000000	      0.00000000	      0.00000000	      0.00000000
      7.51900000	   -241.84025687	   1663.88608925	    -15.68248880	      2.37609231	      0.00000000	      1.07836133	      0.00000000	      5.90544689	      0.00000000	      0.00000000	      0.00000000	      0.00000000	      0.00000000	      0.00000000	      0.00000000	      0.00000000	      0.00000000	      0.00000000
      7.52000000	   -246.92067472	   1706.00150333	    -16.48689485	      2.37405662	      0.00000000	      1.07777822	      0.00000000	      6.24095345	      0.00000000	      0.00000000	      0.00000000	      0.00000000	      0.00000000	      0.00000000	      0.00000000	      0.00000000	      0.00000000	      0.00000000
      7.52100000	   -251.07860626	   1743.54464816	    -17.12467086	      2.37185021	      0.00000000	      1.07726626	      0.00000000	      6.61989260	      0.00000000	      0.00000000	      0.00000000	      0.00000000	      0.00000000	      0.00000000	      0.00000000	      0.00000000	      0.00000000	      0.00000000
      7.52200000	   -255.23653780	   1781.08779300	    -17.76244687	      2.36964379	      0.00000000	      1.07675430	      0.00000000	      6.99883176	      0.00000000	      0.00000000	      0.00000000	      0.00000000	      0.00000000	      0.00000000	      0.00000000	      0.00000000	      0.00000000	      0.00000000
      7.52300000	   -259.39446933	   1818.63093783	    -18.40022288	      2.36743737	      0.00000000	      1.07624234	      0.00000000	      7.37777091	      0.00000000	      0.00000000	      0.00000000	      0.00000000	      0.00000000	      0.00000000	      0.00000000	      0.00000000	      0.00000000	      0.00000000
      7.52400000	   -262.89233804	   1853.08897425	    -18.95006109	      2.36511293	      0.00000000	      1.07577990	     -0.00000000	      7.78001366	      0.00000000	      0.00000000	      0.00000000	      0.00000000	      0.00000000	      0.00000000	      0.00000000	      0.00000000	      0.00000000	      0.00000000
      7.52500000	   -266.06017533	   1886.00445647	    -19.45593039	      2.36272949	      0.00000000	      1.07534220	     -0.00000000	      8.19390822	      0.00000000	      0.00000000	      0.00000000	      0.00000000	      0.00000000	      0.00000000	      0.00000000	      0.00000000	      0.00000000	      0.00000000
      7.52600000	   -269.22801262	   1918.91993869	    -19.96179970	      2.36034605	      0.00000000	      1.07490451	     -0.00000000	      8.60780278	      0.00000000	      0.00000000	      0.00000000	      0.00000000	      0.00000000	      0.00000000	      0.00000000	      0.00000000	      0.00000000	      0.00000000
      7.52700000	   -272.04709095	   1950.30523070	    -20.43658255	      2.35790278	      0.00000000	      1.07449213	     -0.00000000	      9.02973046	      0.00000000	      0.00000000	      0.00000000	      0.00000000	      0.00000000	      0.00000000	      0.00000000	      0.00000000	      0.00000000	      0.00000000
      7.52800000	   -274.16865135	   1978.63014229	    -20.84919249	      2.35533984	      0.00000000	      1.07413037	     -0.00000000	      9.46772439	      0.00000000	      0.00000000	      0.00000000	      0.00000000	      0.00000000	      0.00000000	      0.00000000	      0.00000000	      0.00000000	      0.00000000
